<svg xmlns="http://www.w3.org/2000/svg" viewBox="0 0 126.24 125.17"><g id="Layer_2" data-name="Layer 2"><g id="Logo"><path d="M105.3,120.75a1.52,1.52,0,0,1-1.42-1c-.2-.56-5-13.68-5.72-15.91-3.41-10.24-6.57-19.46-9.63-28a44.68,44.68,0,0,1-6,8.89c-3.56,4-7.13,5.53-10.61,4.65-4-1-7-5.08-9.16-9.52l-.31-.48c-.75-1.13-1.46-2.21-2.19-3.23-1.68-2.35-3.54-4.68-5.46-6.94q-.62,1-1.2,2c3.73,5.89,7.6,11.72,11.41,17.45l3.8,5.72c1,1.56,2.22,3,3.48,4.58A47.56,47.56,0,0,1,77,105.4a60.88,60.88,0,0,1,3,6.43,1.49,1.49,0,0,1-.55,1.47,1.52,1.52,0,0,1-1.56.19,53.4,53.4,0,0,0-8.62-3.22C61.4,108.17,26.41,96,16.57,92c-.91-.37-2.09-.77-3.35-1.18C9,89.36,3.74,87.61,1.65,84.31A1.49,1.49,0,0,1,1.8,82.5C2.86,81.33,7.2,79,16.85,74.08c6.54-3.36,14-7.16,17.41-9.43,2.83-1.85,5.65-3.77,8.45-5.73q-2-3.44-3.82-6.92c-6-6.35-12.23-13.83-13.82-21.91-.36-1.79-.53-3.76.85-4.75a2.24,2.24,0,0,1,1.13-.44l-1-2.68-.14-.37c-1.17-3.05-3.31-9.48-3.4-9.76a1.5,1.5,0,1,1,2.85-.94c0,.06,2.21,6.64,3.35,9.63l.15.37c.63,1.66,1.27,3.31,1.9,5a53.52,53.52,0,0,0,12.71,5.74c3.4.95,6.94,1.87,10.36,2.76l.68.18c.39-.79.8-1.56,1.24-2.31a1.48,1.48,0,0,1,1.44-.74,1.5,1.5,0,0,1,1.28,1A11.91,11.91,0,0,1,59,36c3.64,1,7.29,2,10.9,3.06q2.2-1.62,4.42-3.23A197.49,197.49,0,0,0,66.9,17c-2.4-5.14-5.23-10.88-8-14.54a1.5,1.5,0,0,1,.18-2,1.52,1.52,0,0,1,2,0C67.49,6.09,75.38,7.89,83.73,9.8l.61.14a174.37,174.37,0,0,0,18.17,3.31c2.72.33,5.66,1,6.87,3.18,1,1.74.66,4-.92,7.28-1.21,2.52-2.62,4.95-4,7.3-1.49,2.58-3,5.25-4.28,8a110,110,0,0,0-4.26,11.46c5.24,3.33,11.11,7.77,11.63,11.23a3.49,3.49,0,0,1-1.13,3.17c-2.52,2.3-5.67.72-8-.43-1.07-.53-2.4-1.21-3-1.09s-1.77,2.4-2.22,3.37c-.23.51-.45,1-.64,1.33-.74,1.34-1.47,2.75-2.17,4.12,3.35,9.36,6.81,19.42,10.59,30.74.72,2.19,5.64,15.69,5.69,15.83a1.5,1.5,0,0,1-1.41,2ZM5.11,83.75c2.07,1.83,6,3.15,9.06,4.16,1.31.44,2.54.85,3.55,1.26,9.78,4,44.51,16.11,52.34,18.2a47.08,47.08,0,0,1,5.53,1.84c-.43-.89-.87-1.76-1.2-2.34a43.24,43.24,0,0,0-4.38-6c-1.26-1.55-2.55-3.14-3.66-4.82L62.56,90.3C59,85,55.45,79.6,52,74.14c-.29.51-.57,1-.85,1.53-.69,1.27-1.38,2.52-2.08,3.73-.23.4-.52,1-.82,1.67C46.85,84,45,88,41.81,88a1.49,1.49,0,0,1-1.48-1.21c-.67-3.24.43-6.71,1.4-9.78.22-.69.43-1.36.62-2,.77-2.69,1.49-5.44,2.18-8.11.29-1.1.58-2.22.88-3.34-.4-.67-.8-1.34-1.19-2q-4.12,2.88-8.32,5.63c-3.58,2.35-10.75,6-17.68,9.59C13.37,79.25,7.55,82.24,5.11,83.75ZM71.65,86a5.2,5.2,0,0,0,1.06.39c2.31.59,4.88-.67,7.63-3.74a50.42,50.42,0,0,0,6.82-10.74l-1.67-4.63c-2.86.71-6-.34-9.59-3.19L74.46,63C72.13,70.79,70.52,78.78,71.65,86ZM47.58,67.13c0,.18-.09.35-.14.52-.7,2.68-1.42,5.46-2.2,8.18-.19.67-.41,1.37-.64,2.09A26.94,26.94,0,0,0,43.16,84a24.3,24.3,0,0,0,2.33-4.2c.35-.74.65-1.38.94-1.89.69-1.19,1.37-2.43,2.06-3.68.54-1,1.09-2,1.64-3Q48.84,69.19,47.58,67.13ZM65.4,78.28c.93,1.4,1.88,2.81,2.89,4.12-.24-6.93,1.42-14.19,3.57-21.2-4.32-2.69-7.56-2.88-11.39.72q.42,2.53,1,5.08A58.6,58.6,0,0,0,65.4,78.28ZM56.58,66.55c.83,1,1.65,2,2.45,2.94-.19-.69-.34-1.3-.46-1.79-.23-1-.45-2-.64-3C57.46,65.33,57,65.93,56.58,66.55Zm-7.94-3.46q1.57,2.63,3.2,5.23c.32-.52.63-1,1-1.53-1.33-1.5-2.67-3-4-4.37ZM88.21,66c.28.76.56,1.53.83,2.3.31-.58.61-1.15.92-1.71.17-.31.35-.7.55-1.14.9-2,2.14-4.65,4.4-5.07,1.58-.3,3.19.51,4.89,1.36,2.19,1.09,3.69,1.74,4.61.9a.48.48,0,0,0,.18-.5c-.32-2.14-5-5.72-9.62-8.73-.54,1.62-1.11,3.25-1.73,4.87C91.84,62,90.18,64.52,88.21,66ZM75.4,60c.79.57,1.58,1.18,2.37,1.8,2.62,2.08,4.87,3,6.67,2.7C83.62,62.22,82.81,60,82,57.84c-1-2.78-2-5.61-3-8.42l-1,2.94C77.11,54.83,76.23,57.37,75.4,60ZM49.77,59c1.56,1.65,3.17,3.39,4.77,5.2a39.59,39.59,0,0,1,2.69-3.31l0,0c-.41-2.73-.69-5.43-.9-8.09q-3,2.22-6.07,4.43c-.1.35-.2.71-.31,1.06ZM81,46.07c1.21,3.56,2.47,7.18,3.79,10.72Q86,59.85,87.1,63a16.34,16.34,0,0,0,3.33-5.77c.69-1.8,1.32-3.63,1.92-5.45-2.56-1.56-4.84-2.81-6-3.36C84.6,47.57,82.82,46.8,81,46.07ZM59.23,50.68c.17,2.55.39,5.14.72,7.76,4.58-3.4,8.77-2.58,12.84-.2.76-2.33,1.56-4.63,2.33-6.86.65-1.88,1.28-3.71,1.86-5.47.13-.39.27-.78.4-1.18l0-.06q-3.4-1.24-6.89-2.32L64.18,47C62.54,48.23,60.89,49.46,59.23,50.68Zm-17.87-.45c1,1.07,2,2.1,3,3.1l1.88,2,.66.7.81-.58c.3-1,.59-2.13.88-3.21a119.35,119.35,0,0,1,4.67-14.63l-.18-.05c-3.43-.89-7-1.82-10.41-2.77a48.78,48.78,0,0,1-10.18-4.23A199.46,199.46,0,0,0,41.14,49.8C41.21,50,41.29,50.09,41.36,50.23ZM56,38.66a112.57,112.57,0,0,0-4.46,13.92q2.3-1.66,4.56-3.35C56,47.5,56,45.78,55.9,44.09c0-1.13,0-2.38.06-3.69C56,39.83,56,39.24,56,38.66Zm25.22,4.26c2.17.86,4.3,1.77,6.39,2.76.07,0,2.51,1.28,5.67,3.16a105.66,105.66,0,0,1,4.16-11.1c1.31-2.86,2.88-5.59,4.41-8.23,1.33-2.31,2.71-4.69,3.87-7.1,1.34-2.8,1.28-4,1-4.54-.42-.77-1.93-1.31-4.59-1.64a175.53,175.53,0,0,1-18.49-3.36l-.6-.13C76.78,11.3,70.76,9.93,65.29,7c1.53,2.81,3,5.86,4.34,8.72A196.54,196.54,0,0,1,76.88,34c5.06-3.64,10.21-7.21,15.43-10.58.4-.27.81-.53,1.22-.79a1.51,1.51,0,0,1,1.6,2.56c-.43.27-.86.54-1.28.82C88.23,29.75,84.4,34.89,81.25,42.92ZM59,39.08c0,.48,0,1-.05,1.44,0,1.26-.1,2.44-.06,3.46S59,46,59,47.08l3.35-2.48,4.5-3.34C64.27,40.5,61.65,39.78,59,39.08ZM27.83,28a7.67,7.67,0,0,0,.19,1.5,30.71,30.71,0,0,0,5.65,11.7c-1.9-4.3-3.63-8.6-5.33-13ZM73.47,40.14c.89.29,1.78.59,2.66.9l-.77-2.28Zm4.44-3.22c.38,1.13.77,2.26,1.15,3.38a45.44,45.44,0,0,1,3.38-6.62Q80.16,35.28,77.91,36.92Z"/><path d="M40.45,125.17a1.5,1.5,0,0,1-1-2.58c.08-.08,8.19-7.86,12.14-11.47C57.48,105.7,63,100.77,68.16,96.19c-5-3.79-10-7.83-14.81-12.22-7.78-7.15-14.44-15.19-20.88-23-2.73-3.3-5.55-6.71-8.43-10l-1.43-1.67a30.8,30.8,0,0,1-11.95-6.18c-.13-.11-12-10.9-10.53-16.7a1.47,1.47,0,0,1,.85-1,1.49,1.49,0,0,1,1.32.05C9.92,29.6,16.79,37.75,22.86,45c.47.57.95,1.12,1.41,1.67,7.93,2,16.82,1.44,25,.93L52,47.38c17-1,33.12-.08,52.06,1.58A79.8,79.8,0,0,0,118,48.84c.45,0,.93-.11,1.43-.18,2-.27,4.19-.58,6,.43a1.5,1.5,0,0,1,.52,2.16c-2.25,3.28-5.43,5.64-8.5,7.92-.87.65-1.73,1.29-2.57,1.95C104.1,69.65,93.43,78.56,85.33,85.36,81.3,88.75,77.21,92.26,73,96c3.22,2.36,6.43,4.62,9.58,6.81L85,104.46c4.68,3.15,8.73,5.87,11.81,11.39a1.5,1.5,0,1,1-2.63,1.46c-2.73-4.89-6.32-7.3-10.86-10.36-.8-.54-1.62-1.09-2.47-1.68C77.47,103,74.06,100.54,70.63,98c-5.33,4.7-10.95,9.74-17,15.32-3.93,3.58-12,11.34-12.09,11.42A1.47,1.47,0,0,1,40.45,125.17Zm-13-74.82c2.5,2.91,4.94,5.86,7.32,8.73,6.67,8.06,13,15.67,20.6,22.68,4.85,4.45,10,8.56,15.08,12.4,4.46-3.9,8.73-7.57,12.93-11.1,8.11-6.82,18.8-15.74,29.65-24.3.86-.68,1.75-1.34,2.64-2A43.49,43.49,0,0,0,122,51.41c-.69,0-1.44.14-2.14.23s-1.1.15-1.6.2a83.66,83.66,0,0,1-14.45.12C85,50.3,69,49.41,52.2,50.39l-2.74.16C42.33,51,34.69,51.47,27.47,50.35ZM3.68,29.86c1.69,3.49,6.14,8.61,8.92,11a26.11,26.11,0,0,0,6.1,3.86C14.08,39.25,9,33.56,3.68,29.86Z"/></g></g></svg>